<?xml version="1.0" encoding="utf-8"?>
<!-- Generator: Adobe Illustrator 19.0.0, SVG Export Plug-In . SVG Version: 6.00 Build 0)  -->
<svg version="1.1" id="Layer_1" xmlns="http://www.w3.org/2000/svg" xmlns:xlink="http://www.w3.org/1999/xlink" x="0px" y="0px"
	 viewBox="0 0 774 200" style="enable-background:new 0 0 774 200;" xml:space="preserve">
<style type="text/css">
	.st0{fill:#151A30;}
	.st1{fill:#2753FF;}
</style>
<g id="XMLID_1_">
	<path id="XMLID_35_" class="st0" d="M106.2,89c0,1.5,0,2.8-0.1,3.8c-0.1,1-0.2,1.8-0.4,2.3c-0.2,0.6-0.4,0.9-0.7,1.2
		c-0.3,0.2-0.6,0.3-1.1,0.3c-0.3,0-0.7-0.1-1.2-0.2c-0.4-0.1-0.9-0.3-1.4-0.5c-0.5-0.2-1.1-0.3-1.8-0.5c-0.6-0.1-1.3-0.2-2.1-0.2
		c-0.9,0-1.8,0.2-2.7,0.5c-0.9,0.4-1.8,0.9-2.8,1.7c-1,0.8-2,1.8-3,3.1c-1,1.3-2.2,2.9-3.4,4.7v35.6c0,0.4-0.1,0.8-0.4,1.1
		c-0.3,0.3-0.7,0.6-1.3,0.8c-0.6,0.2-1.4,0.4-2.5,0.5c-1,0.1-2.3,0.2-3.9,0.2s-2.9-0.1-3.9-0.2c-1-0.1-1.8-0.3-2.5-0.5
		c-0.6-0.2-1.1-0.5-1.3-0.8c-0.3-0.3-0.4-0.7-0.4-1.1V83.7c0-0.4,0.1-0.8,0.3-1.1c0.2-0.3,0.6-0.6,1.2-0.8s1.3-0.4,2.1-0.5
		c0.9-0.1,2-0.2,3.3-0.2c1.4,0,2.5,0.1,3.4,0.2c0.9,0.1,1.6,0.3,2.1,0.5s0.8,0.5,1.1,0.8c0.2,0.3,0.3,0.7,0.3,1.1v7.1
		c1.5-2.1,2.9-3.9,4.2-5.3c1.3-1.4,2.6-2.5,3.8-3.3c1.2-0.8,2.4-1.4,3.6-1.7c1.2-0.3,2.4-0.5,3.6-0.5c0.6,0,1.2,0,1.8,0.1
		c0.6,0.1,1.3,0.2,2,0.3c0.7,0.1,1.3,0.3,1.8,0.5c0.5,0.2,0.9,0.4,1.1,0.6c0.2,0.2,0.4,0.4,0.5,0.7c0.1,0.3,0.2,0.6,0.3,1.1
		c0.1,0.4,0.1,1.1,0.2,2C106.1,86.2,106.2,87.4,106.2,89z"/>
	<path id="XMLID_32_" class="st0" d="M161.9,139.9c0,0.6-0.2,1.1-0.6,1.4c-0.4,0.3-1.1,0.6-2,0.7c-0.9,0.1-2.3,0.2-4.1,0.2
		c-1.9,0-3.3-0.1-4.2-0.2c-0.9-0.2-1.5-0.4-1.9-0.7s-0.5-0.8-0.5-1.4v-4.5c-2.3,2.5-5,4.5-8,5.9c-3,1.4-6.4,2.1-10,2.1
		c-3,0-5.8-0.4-8.4-1.2c-2.5-0.8-4.7-2-6.6-3.5c-1.9-1.6-3.3-3.5-4.3-5.8c-1-2.3-1.5-5-1.5-8.1c0-3.3,0.7-6.2,2-8.7
		c1.3-2.5,3.2-4.5,5.8-6.1c2.6-1.6,5.8-2.8,9.6-3.6c3.8-0.8,8.3-1.2,13.4-1.2h5.6v-3.5c0-1.8-0.2-3.4-0.5-4.7s-1-2.5-1.8-3.4
		c-0.8-0.9-1.9-1.6-3.3-2c-1.4-0.4-3.1-0.6-5.2-0.6c-2.7,0-5.1,0.3-7.2,0.9c-2.1,0.6-4,1.3-5.6,2c-1.6,0.7-3,1.4-4.1,2
		c-1.1,0.6-2,0.9-2.7,0.9c-0.5,0-0.9-0.1-1.2-0.5c-0.4-0.3-0.7-0.7-0.9-1.3c-0.2-0.6-0.4-1.2-0.5-2c-0.1-0.8-0.2-1.7-0.2-2.7
		c0-1.3,0.1-2.4,0.3-3.1c0.2-0.8,0.6-1.5,1.2-2.1c0.6-0.6,1.6-1.3,3.1-2.1c1.5-0.7,3.2-1.4,5.3-2.1c2-0.6,4.2-1.2,6.6-1.6
		c2.4-0.4,4.8-0.6,7.3-0.6c4.5,0,8.3,0.4,11.5,1.3c3.2,0.9,5.8,2.2,7.8,4c2,1.8,3.5,4.2,4.5,7c0.9,2.9,1.4,6.3,1.4,10.2V139.9z
		 M146.1,115.4h-6.2c-2.6,0-4.8,0.2-6.7,0.6c-1.8,0.4-3.3,1-4.5,1.7c-1.2,0.8-2,1.7-2.5,2.8c-0.5,1.1-0.8,2.3-0.8,3.7
		c0,2.4,0.8,4.3,2.3,5.6c1.5,1.4,3.6,2,6.3,2c2.3,0,4.3-0.6,6.2-1.7c1.9-1.2,3.8-2.8,5.8-5.1V115.4z"/>
	<path id="XMLID_30_" class="st0" d="M232.6,140.8c0,0.4-0.1,0.8-0.4,1.1c-0.3,0.3-0.7,0.6-1.3,0.8c-0.6,0.2-1.4,0.4-2.5,0.5
		c-1,0.1-2.3,0.2-3.9,0.2c-1.6,0-2.9-0.1-3.9-0.2c-1-0.1-1.9-0.3-2.5-0.5c-0.6-0.2-1-0.5-1.3-0.8c-0.3-0.3-0.4-0.7-0.4-1.1v-32.6
		c0-2.8-0.2-5-0.6-6.5c-0.4-1.6-1-2.9-1.8-4.1c-0.8-1.1-1.8-2-3-2.6c-1.2-0.6-2.6-0.9-4.3-0.9c-2.1,0-4.1,0.7-6.2,2.2
		c-2.1,1.5-4.3,3.7-6.5,6.5v38c0,0.4-0.1,0.8-0.4,1.1c-0.3,0.3-0.7,0.6-1.3,0.8c-0.6,0.2-1.4,0.4-2.5,0.5c-1,0.1-2.3,0.2-3.9,0.2
		s-2.9-0.1-3.9-0.2c-1-0.1-1.8-0.3-2.5-0.5c-0.6-0.2-1.1-0.5-1.3-0.8c-0.3-0.3-0.4-0.7-0.4-1.1V83.7c0-0.4,0.1-0.8,0.3-1.1
		c0.2-0.3,0.6-0.6,1.2-0.8s1.3-0.4,2.1-0.5c0.9-0.1,2-0.2,3.3-0.2c1.4,0,2.5,0.1,3.4,0.2c0.9,0.1,1.6,0.3,2.1,0.5
		c0.5,0.2,0.8,0.5,1.1,0.8c0.2,0.3,0.3,0.7,0.3,1.1v6.6c3.2-3.4,6.4-6,9.6-7.7c3.3-1.7,6.7-2.6,10.2-2.6c3.9,0,7.2,0.6,9.8,1.9
		c2.7,1.3,4.8,3,6.5,5.2c1.6,2.2,2.8,4.8,3.6,7.7c0.7,2.9,1.1,6.5,1.1,10.6V140.8z"/>
	<path id="XMLID_28_" class="st0" d="M288.7,123.6c0,3.2-0.6,6.1-1.8,8.6c-1.2,2.5-2.9,4.6-5.2,6.2c-2.2,1.7-4.8,2.9-7.9,3.7
		c-3,0.8-6.3,1.2-9.9,1.2c-2.1,0-4.2-0.2-6.1-0.5c-1.9-0.3-3.7-0.7-5.2-1.2c-1.5-0.5-2.8-1-3.8-1.5c-1-0.5-1.8-1-2.2-1.4
		c-0.5-0.4-0.8-1.2-1.1-2.1c-0.3-1-0.4-2.4-0.4-4.3c0-1.2,0-2.2,0.1-3s0.2-1.3,0.4-1.8c0.2-0.5,0.4-0.7,0.6-0.9
		c0.3-0.1,0.6-0.2,1-0.2c0.5,0,1.2,0.3,2.1,0.8c0.9,0.5,2.1,1.1,3.4,1.8c1.4,0.6,3,1.2,4.8,1.8c1.8,0.6,3.9,0.8,6.2,0.8
		c1.5,0,2.7-0.1,3.9-0.4c1.1-0.3,2.1-0.7,2.9-1.3c0.8-0.6,1.5-1.3,1.9-2.1c0.4-0.9,0.6-1.8,0.6-2.9c0-1.3-0.4-2.4-1.2-3.3
		c-0.8-0.9-1.8-1.7-3.1-2.4c-1.3-0.7-2.8-1.3-4.4-1.9s-3.3-1.3-5.1-2c-1.7-0.7-3.4-1.6-5.1-2.5c-1.6-0.9-3.1-2.1-4.4-3.5
		c-1.3-1.4-2.3-3-3.1-4.9c-0.8-1.9-1.2-4.2-1.2-6.9c0-2.7,0.5-5.2,1.6-7.5c1.1-2.3,2.6-4.2,4.6-5.9s4.5-2.9,7.3-3.8
		c2.9-0.9,6.1-1.3,9.7-1.3c1.8,0,3.5,0.1,5.2,0.4c1.7,0.3,3.2,0.6,4.6,1c1.4,0.4,2.5,0.8,3.5,1.2s1.6,0.8,2,1.2
		c0.4,0.3,0.7,0.6,0.9,1c0.2,0.3,0.3,0.7,0.4,1.2c0.1,0.4,0.2,1,0.2,1.7c0.1,0.7,0.1,1.5,0.1,2.5c0,1.2,0,2.1-0.1,2.8
		c-0.1,0.7-0.2,1.3-0.3,1.7c-0.1,0.4-0.4,0.7-0.6,0.9c-0.3,0.1-0.6,0.2-0.9,0.2c-0.4,0-1-0.2-1.8-0.7c-0.8-0.5-1.8-0.9-3-1.4
		s-2.6-1-4.2-1.4c-1.6-0.4-3.4-0.7-5.5-0.7c-1.5,0-2.7,0.2-3.8,0.5c-1.1,0.3-1.9,0.7-2.6,1.3c-0.7,0.6-1.2,1.2-1.5,2
		c-0.3,0.7-0.5,1.6-0.5,2.4c0,1.3,0.4,2.4,1.2,3.3c0.8,0.9,1.9,1.7,3.2,2.4c1.3,0.7,2.8,1.3,4.5,1.9c1.7,0.6,3.4,1.2,5.1,2
		c1.7,0.7,3.4,1.5,5.1,2.5c1.7,0.9,3.2,2.1,4.5,3.5c1.3,1.4,2.4,3,3.2,4.9C288.2,118.7,288.7,121,288.7,123.6z"/>
	<path id="XMLID_26_" class="st0" d="M334.1,61.9c0,1.2,0,2.2-0.1,3c-0.1,0.7-0.2,1.3-0.4,1.7c-0.2,0.4-0.4,0.7-0.6,0.8
		c-0.2,0.2-0.4,0.2-0.7,0.2c-0.3,0-0.6-0.1-1-0.2c-0.4-0.1-0.8-0.3-1.3-0.5c-0.5-0.2-1.2-0.3-1.9-0.5c-0.7-0.1-1.6-0.2-2.6-0.2
		c-1.2,0-2.1,0.2-3,0.5c-0.8,0.4-1.5,0.9-2.1,1.7c-0.6,0.8-1,1.8-1.2,3.1c-0.3,1.3-0.4,2.8-0.4,4.6v5.3h10.4c0.4,0,0.7,0.1,1.1,0.3
		c0.3,0.2,0.6,0.6,0.8,1.1c0.2,0.5,0.4,1.2,0.5,2c0.1,0.9,0.2,1.9,0.2,3.1c0,2.3-0.2,4-0.6,5c-0.4,1-1,1.5-1.9,1.5h-10.4v46.3
		c0,0.4-0.1,0.8-0.4,1.1c-0.3,0.3-0.7,0.6-1.3,0.8c-0.6,0.2-1.4,0.4-2.5,0.5c-1.1,0.1-2.4,0.2-3.9,0.2c-1.5,0-2.8-0.1-3.9-0.2
		c-1-0.1-1.9-0.3-2.5-0.5c-0.6-0.2-1-0.5-1.3-0.8c-0.2-0.3-0.4-0.7-0.4-1.1V94.6h-7.2c-0.8,0-1.4-0.5-1.8-1.5c-0.4-1-0.6-2.7-0.6-5
		c0-1.2,0.1-2.3,0.2-3.1c0.1-0.9,0.3-1.5,0.4-2c0.2-0.5,0.5-0.8,0.8-1.1c0.3-0.2,0.7-0.3,1.1-0.3h7.1v-4.8c0-3.9,0.4-7.3,1.2-10.2
		c0.8-2.9,2-5.4,3.6-7.3c1.6-1.9,3.7-3.4,6.3-4.4c2.5-1,5.5-1.5,9-1.5c1.7,0,3.2,0.1,4.7,0.4c1.5,0.3,2.7,0.6,3.5,0.9
		c0.9,0.3,1.4,0.6,1.7,0.9c0.3,0.3,0.5,0.7,0.7,1.2c0.2,0.5,0.3,1.2,0.4,2.1C334.1,59.6,334.1,60.6,334.1,61.9z"/>
	<path id="XMLID_23_" class="st0" d="M391.7,109.5c0,2-0.4,3.4-1.3,4.4c-0.9,0.9-2.1,1.4-3.6,1.4H352c0,2.4,0.3,4.6,0.9,6.6
		c0.6,2,1.5,3.7,2.8,5.1c1.3,1.4,2.9,2.4,4.9,3.2c2,0.7,4.4,1.1,7.1,1.1c2.8,0,5.3-0.2,7.4-0.6c2.1-0.4,4-0.9,5.5-1.3
		c1.6-0.5,2.9-0.9,3.9-1.3c1-0.4,1.9-0.6,2.5-0.6c0.4,0,0.7,0.1,1,0.2c0.3,0.1,0.5,0.4,0.6,0.8c0.2,0.4,0.3,0.9,0.4,1.6
		s0.1,1.6,0.1,2.7c0,0.9,0,1.7-0.1,2.4c0,0.7-0.1,1.2-0.2,1.7c-0.1,0.5-0.2,0.9-0.4,1.2c-0.2,0.3-0.4,0.6-0.7,0.9
		c-0.3,0.3-1,0.7-2.3,1.2c-1.2,0.5-2.8,1-4.7,1.5c-1.9,0.5-4.1,0.9-6.6,1.3c-2.5,0.4-5.1,0.5-7.9,0.5c-5.1,0-9.5-0.6-13.4-1.9
		c-3.8-1.3-7-3.2-9.6-5.8c-2.6-2.6-4.5-5.9-5.7-9.9c-1.3-4-1.9-8.6-1.9-14c0-5.1,0.7-9.7,2-13.7c1.3-4.1,3.2-7.5,5.8-10.4
		s5.6-5,9.2-6.5c3.6-1.5,7.7-2.2,12.2-2.2c4.8,0,8.9,0.7,12.3,2.1c3.4,1.4,6.2,3.4,8.4,5.9c2.2,2.5,3.8,5.5,4.8,8.9
		c1,3.4,1.5,7.1,1.5,11.1V109.5z M376,104.9c0.1-4.5-0.8-8.1-2.7-10.7c-1.9-2.6-4.9-3.9-9-3.9c-2,0-3.8,0.4-5.3,1.2
		c-1.5,0.8-2.8,1.8-3.8,3.1c-1,1.3-1.8,2.8-2.3,4.6c-0.5,1.8-0.8,3.7-0.9,5.7H376z"/>
	<path id="XMLID_21_" class="st0" d="M441.7,89c0,1.5,0,2.8-0.1,3.8c-0.1,1-0.2,1.8-0.4,2.3c-0.2,0.6-0.4,0.9-0.7,1.2
		c-0.3,0.2-0.6,0.3-1.1,0.3c-0.3,0-0.7-0.1-1.2-0.2c-0.4-0.1-0.9-0.3-1.4-0.5c-0.5-0.2-1.1-0.3-1.8-0.5c-0.6-0.1-1.3-0.2-2.1-0.2
		c-0.9,0-1.8,0.2-2.7,0.5c-0.9,0.4-1.8,0.9-2.8,1.7c-1,0.8-2,1.8-3,3.1c-1,1.3-2.2,2.9-3.4,4.7v35.6c0,0.4-0.1,0.8-0.4,1.1
		c-0.3,0.3-0.7,0.6-1.3,0.8c-0.6,0.2-1.4,0.4-2.5,0.5c-1,0.1-2.3,0.2-3.9,0.2s-2.9-0.1-3.9-0.2c-1-0.1-1.8-0.3-2.5-0.5
		c-0.6-0.2-1.1-0.5-1.3-0.8c-0.3-0.3-0.4-0.7-0.4-1.1V83.7c0-0.4,0.1-0.8,0.3-1.1c0.2-0.3,0.6-0.6,1.2-0.8s1.3-0.4,2.1-0.5
		c0.9-0.1,2-0.2,3.3-0.2c1.4,0,2.5,0.1,3.4,0.2c0.9,0.1,1.6,0.3,2.1,0.5s0.8,0.5,1.1,0.8c0.2,0.3,0.3,0.7,0.3,1.1v7.1
		c1.5-2.1,2.9-3.9,4.2-5.3c1.3-1.4,2.6-2.5,3.8-3.3c1.2-0.8,2.4-1.4,3.6-1.7c1.2-0.3,2.4-0.5,3.6-0.5c0.6,0,1.2,0,1.8,0.1
		s1.3,0.2,2,0.3c0.7,0.1,1.3,0.3,1.8,0.5c0.5,0.2,0.9,0.4,1.1,0.6c0.2,0.2,0.4,0.4,0.5,0.7c0.1,0.3,0.2,0.6,0.3,1.1
		c0.1,0.4,0.1,1.1,0.2,2C441.6,86.2,441.7,87.4,441.7,89z"/>
	<path id="XMLID_19_" class="st0" d="M490.2,123.6c0,3.2-0.6,6.1-1.8,8.6c-1.2,2.5-2.9,4.6-5.2,6.2c-2.2,1.7-4.8,2.9-7.9,3.7
		c-3,0.8-6.3,1.2-9.9,1.2c-2.1,0-4.2-0.2-6.1-0.5c-1.9-0.3-3.7-0.7-5.2-1.2c-1.5-0.5-2.8-1-3.8-1.5c-1-0.5-1.8-1-2.2-1.4
		c-0.5-0.4-0.8-1.2-1.1-2.1c-0.3-1-0.4-2.4-0.4-4.3c0-1.2,0-2.2,0.1-3s0.2-1.3,0.4-1.8c0.2-0.5,0.4-0.7,0.6-0.9
		c0.3-0.1,0.6-0.2,1-0.2c0.5,0,1.2,0.3,2.1,0.8c0.9,0.5,2.1,1.1,3.4,1.8c1.4,0.6,3,1.2,4.8,1.8c1.8,0.6,3.9,0.8,6.2,0.8
		c1.5,0,2.7-0.1,3.9-0.4c1.1-0.3,2.1-0.7,2.9-1.3c0.8-0.6,1.5-1.3,1.9-2.1c0.4-0.9,0.6-1.8,0.6-2.9c0-1.3-0.4-2.4-1.2-3.3
		c-0.8-0.9-1.8-1.7-3.1-2.4c-1.3-0.7-2.8-1.3-4.4-1.9c-1.6-0.6-3.3-1.3-5.1-2c-1.7-0.7-3.4-1.6-5.1-2.5c-1.6-0.9-3.1-2.1-4.4-3.5
		c-1.3-1.4-2.3-3-3.1-4.9c-0.8-1.9-1.2-4.2-1.2-6.9c0-2.7,0.5-5.2,1.6-7.5c1.1-2.3,2.6-4.2,4.6-5.9c2-1.6,4.5-2.9,7.3-3.8
		c2.9-0.9,6.1-1.3,9.7-1.3c1.8,0,3.5,0.1,5.2,0.4c1.7,0.3,3.2,0.6,4.6,1c1.4,0.4,2.5,0.8,3.5,1.2s1.6,0.8,2,1.2
		c0.4,0.3,0.7,0.6,0.9,1c0.2,0.3,0.3,0.7,0.4,1.2c0.1,0.4,0.2,1,0.2,1.7c0.1,0.7,0.1,1.5,0.1,2.5c0,1.2,0,2.1-0.1,2.8
		c-0.1,0.7-0.2,1.3-0.3,1.7c-0.1,0.4-0.4,0.7-0.6,0.9c-0.3,0.1-0.6,0.2-0.9,0.2c-0.4,0-1-0.2-1.8-0.7c-0.8-0.5-1.8-0.9-3-1.4
		c-1.2-0.5-2.6-1-4.2-1.4c-1.6-0.4-3.4-0.7-5.5-0.7c-1.5,0-2.7,0.2-3.8,0.5c-1.1,0.3-1.9,0.7-2.6,1.3c-0.7,0.6-1.2,1.2-1.5,2
		c-0.3,0.7-0.5,1.6-0.5,2.4c0,1.3,0.4,2.4,1.2,3.3c0.8,0.9,1.9,1.7,3.2,2.4c1.3,0.7,2.8,1.3,4.5,1.9c1.7,0.6,3.4,1.2,5.1,2
		c1.7,0.7,3.4,1.5,5.1,2.5c1.7,0.9,3.2,2.1,4.5,3.5c1.3,1.4,2.4,3,3.2,4.9C489.8,118.7,490.2,121,490.2,123.6z"/>
	<path id="XMLID_15_" class="st0" d="M633.7,110.6c0,4.9-0.6,9.3-1.9,13.3s-3.2,7.5-5.8,10.4c-2.6,2.9-5.9,5.1-9.8,6.7
		c-3.9,1.6-8.5,2.4-13.8,2.4c-5.1,0-9.5-0.7-13.3-2.1c-3.8-1.4-6.9-3.5-9.4-6.2c-2.5-2.7-4.3-6-5.5-9.9c-1.2-3.9-1.8-8.4-1.8-13.5
		c0-4.9,0.7-9.3,2-13.4c1.3-4,3.3-7.5,5.9-10.4c2.6-2.9,5.9-5.1,9.8-6.7c3.9-1.6,8.5-2.4,13.7-2.4c5.1,0,9.6,0.7,13.3,2.1
		c3.8,1.4,6.9,3.4,9.3,6.1c2.5,2.7,4.3,6,5.5,9.9C633.1,101,633.7,105.5,633.7,110.6z M617.1,111.2c0-2.8-0.2-5.4-0.7-7.8
		c-0.4-2.4-1.2-4.4-2.3-6.2c-1.1-1.8-2.5-3.1-4.3-4.1c-1.8-1-4-1.5-6.7-1.5c-2.4,0-4.5,0.4-6.3,1.3c-1.8,0.9-3.3,2.2-4.4,3.8
		c-1.2,1.7-2,3.7-2.6,6.1c-0.6,2.4-0.9,5.1-0.9,8.1c0,2.8,0.2,5.4,0.7,7.8c0.5,2.4,1.2,4.4,2.3,6.2c1,1.8,2.5,3.1,4.3,4.1
		c1.8,1,4,1.4,6.7,1.4c2.4,0,4.5-0.4,6.3-1.3c1.8-0.9,3.3-2.1,4.4-3.8c1.2-1.7,2-3.7,2.6-6.1C616.8,117,617.1,114.3,617.1,111.2z"/>
	<path id="XMLID_12_" class="st0" d="M704.2,110.6c0,4.9-0.6,9.3-1.9,13.3c-1.3,4-3.2,7.5-5.8,10.4c-2.6,2.9-5.9,5.1-9.8,6.7
		c-3.9,1.6-8.5,2.4-13.8,2.4c-5.1,0-9.5-0.7-13.3-2.1c-3.8-1.4-6.9-3.5-9.4-6.2c-2.5-2.7-4.3-6-5.5-9.9c-1.2-3.9-1.8-8.4-1.8-13.5
		c0-4.9,0.7-9.3,2-13.4c1.3-4,3.3-7.5,5.9-10.4c2.6-2.9,5.9-5.1,9.8-6.7c3.9-1.6,8.5-2.4,13.7-2.4c5.1,0,9.6,0.7,13.3,2.1
		c3.8,1.4,6.9,3.4,9.3,6.1c2.5,2.7,4.3,6,5.5,9.9C703.6,101,704.2,105.5,704.2,110.6z M687.6,111.2c0-2.8-0.2-5.4-0.7-7.8
		c-0.4-2.4-1.2-4.4-2.3-6.2c-1.1-1.8-2.5-3.1-4.3-4.1c-1.8-1-4-1.5-6.7-1.5c-2.4,0-4.5,0.4-6.3,1.3s-3.3,2.2-4.4,3.8
		c-1.2,1.7-2,3.7-2.6,6.1c-0.6,2.4-0.9,5.1-0.9,8.1c0,2.8,0.2,5.4,0.7,7.8c0.5,2.4,1.2,4.4,2.3,6.2c1,1.8,2.5,3.1,4.3,4.1
		c1.8,1,4,1.4,6.7,1.4c2.4,0,4.5-0.4,6.3-1.3s3.3-2.1,4.4-3.8c1.2-1.7,2-3.7,2.6-6.1C687.3,117,687.6,114.3,687.6,111.2z"/>
	<path id="XMLID_10_" class="st0" d="M770.1,140.9c0,0.4-0.1,0.8-0.4,1.1c-0.2,0.3-0.7,0.6-1.3,0.8c-0.6,0.2-1.5,0.3-2.5,0.5
		c-1.1,0.1-2.5,0.2-4.2,0.2c-1.8,0-3.2,0-4.3-0.1c-1.1-0.1-2-0.2-2.7-0.4c-0.7-0.2-1.2-0.5-1.6-0.8c-0.4-0.3-0.7-0.8-1-1.3l-19-30.1
		v30.2c0,0.4-0.1,0.8-0.4,1.1c-0.3,0.3-0.7,0.6-1.3,0.8c-0.6,0.2-1.4,0.4-2.5,0.5c-1,0.1-2.3,0.2-3.9,0.2c-1.6,0-2.9-0.1-3.9-0.2
		c-1-0.1-1.8-0.3-2.5-0.5c-0.6-0.2-1.1-0.5-1.3-0.8c-0.3-0.3-0.4-0.7-0.4-1.1V56.6c0-0.4,0.1-0.8,0.4-1.2s0.7-0.6,1.3-0.9
		c0.6-0.2,1.4-0.4,2.5-0.5c1-0.1,2.3-0.2,3.9-0.2c1.6,0,2.9,0.1,3.9,0.2c1,0.1,1.8,0.3,2.5,0.5c0.6,0.2,1.1,0.5,1.3,0.9
		c0.3,0.3,0.4,0.7,0.4,1.2v50.2L750,84c0.3-0.5,0.7-1,1.2-1.3s1-0.7,1.7-0.9c0.7-0.2,1.6-0.4,2.6-0.5c1-0.1,2.4-0.2,4-0.2
		c1.6,0,2.9,0.1,4,0.2c1.1,0.1,2,0.3,2.6,0.5c0.7,0.2,1.1,0.5,1.4,0.8c0.3,0.3,0.4,0.7,0.4,1.2c0,0.6-0.2,1.3-0.5,2.1
		c-0.3,0.7-0.8,1.5-1.4,2.3l-16.7,19l19.3,29.9c0.5,0.9,0.9,1.6,1.1,2.2C770,139.8,770.1,140.4,770.1,140.9z"/>
	<g id="XMLID_7_">
		<path id="XMLID_9_" class="st1" d="M59.8,60.1v13.8H44.1v64.9c0,0.1,0,0.2,0,0.5c0,0.4,0,1.1-0.1,1.8c-0.1,0.3-0.2,0.5-0.4,0.7
			c-0.3,0.3-0.7,0.6-1.4,0.8c-0.6,0.2-1.5,0.4-2.6,0.5c-1.1,0.1-2.4,0.2-4.1,0.2c-1.6,0-3-0.1-4.1-0.2c-1.1-0.1-1.9-0.3-2.6-0.5
			c-0.6-0.2-1.1-0.5-1.4-0.8c-0.1-0.2-0.3-0.4-0.3-0.6c-0.1-1.5-0.1-2.5-0.1-2.6V73.9H6.4c-0.3,0-0.6-0.1-0.9-0.2
			c-0.1,0-0.2-0.1-0.2-0.2c-0.1-0.1-0.1-0.1-0.2-0.2c-0.2-0.3-0.4-0.6-0.6-1c-0.1-0.3-0.2-0.6-0.3-0.9c-0.1-0.4-0.1-0.7-0.2-1.2
			C4,69.3,3.9,68.3,3.9,67c0-1.3,0.1-2.4,0.2-3.3c0.1-0.4,0.1-0.9,0.2-1.2c0.1-0.4,0.2-0.7,0.3-0.9c0.2-0.4,0.3-0.7,0.6-0.9
			c0.1-0.1,0.1-0.1,0.2-0.2l0,0c0.3-0.2,0.7-0.4,1.1-0.4H59.8z"/>
		<path id="XMLID_8_" class="st1" d="M59.8,57.3l14.9,8.6c0.9,0.5,0.9,1.7,0,2.2l-14.9,8.6c-0.9,0.5-1.9-0.1-1.9-1.1V58.4
			C57.9,57.4,58.9,56.8,59.8,57.3z"/>
	</g>
	<g id="XMLID_2_">
		<g id="XMLID_5_">
			<path id="XMLID_6_" class="st1" d="M563.3,118.4v1.6c-0.1,2.4-0.5,4.8-1.2,6.8c-0.8,2.3-1.9,4.4-3.3,6.2c-1.4,1.8-3.1,3.4-5,4.7
				c-2,1.3-4.1,2.3-6.5,3.2c-2.3,0.8-4.8,1.4-7.5,1.8c-1.2,0.2-2.4,0.3-3.7,0.5c-1.6,0.1-3.4,0.2-5.2,0.2H511v-12.7h21.5
				c2.3,0,4.3-0.3,5.9-0.7c1.6-0.5,3-1.2,4.1-2.1c1.2-1,2.1-2.1,2.7-3.5c0.6-1.4,1-3,1-4.8v-0.4c-0.1-1.7-0.4-3.3-1-4.7
				c-0.6-1.5-1.5-2.7-2.8-3.7c-1.2-1-2.8-1.8-4.6-2.3c-1.5-0.5-3.3-0.6-5.3-0.8c-0.7,0-1.2-0.6-1.2-1.2v-9.9c0-0.2,0.1-0.4,0.2-0.6
				c0.2-0.3,0.5-0.6,0.9-0.6c1.3-0.1,2.4-0.4,3.3-0.8c1.4-0.5,2.6-1.3,3.5-2.3c1-1,1.6-2.1,2.1-3.4c0.3-0.7,0.4-1.4,0.5-2.1
				c0.1-0.6,0.1-1.1,0.1-1.7v-0.4c0-1.5-0.3-2.8-0.7-4c-0.5-1.4-1.3-2.4-2.3-3.3c-1-0.8-2.3-1.5-3.9-1.9c-0.1-0.1-0.3-0.1-0.5-0.1
				c-1.5-0.4-3.4-0.6-5.7-0.6h-8.4v50.8c0,0.6-0.5,1.2-1.2,1.2h-1c-0.4,0-0.8-0.3-1-0.6c-0.8-1.7-2.6-2.8-4.6-2.8
				c-0.9,0-1.8,0.3-2.6,0.7l-4,2.3c-0.8,0.5-1.8-0.1-1.8-1V67.5c0-1.8,0.5-3.2,1.4-4c0.9-0.8,2.1-1.2,3.5-1.2h20.5
				c2.3,0,4.6,0.1,6.6,0.3c2.3,0.2,4.3,0.5,6.1,1c3.4,0.8,6.4,2.1,8.8,3.8c1.8,1.3,3.3,2.8,4.4,4.7c0.4,0.6,0.7,1.2,1,1.7
				c1.3,2.6,1.9,5.6,1.9,9.1V84c-0.1,1.4-0.3,2.8-0.7,4.1c-0.5,1.8-1.2,3.4-2.3,4.8c-0.9,1.4-2.1,2.7-3.5,3.8c-1.4,1.1-3,2-4.8,2.6
				c0.3,0.1,0.6,0.1,0.8,0.2h0.1c1.9,0.5,3.8,1.1,5.5,2c1.9,1.1,3.7,2.4,5.1,4.1c1.4,1.7,2.6,3.6,3.4,5.9c0.6,1.5,1,3.2,1.2,5.1
				C563.3,117.1,563.3,117.7,563.3,118.4z"/>
		</g>
		<g id="XMLID_3_">
			<path id="XMLID_4_" class="st1" d="M514,128.6v16.8c0,1-1.1,1.6-1.9,1.1l-14.6-8.4c-0.3-0.2-0.5-0.5-0.6-0.8
				c-0.1-0.1-0.1-0.3-0.1-0.4c0-0.5,0.2-0.8,0.6-1.1l14.6-8.4C512.9,127,514,127.6,514,128.6z"/>
		</g>
	</g>
</g>
</svg>
